<svg version="1.1" xmlns="http://www.w3.org/2000/svg" viewBox="0 0 228.75 221.25" width="228.75" height="221.25">
  <!-- svg-source:excalidraw -->
  
  <defs>
    <style>
      @font-face {
        font-family: "Virgil";
        src: url("https://excalidraw.com/Virgil.woff2");
      }
      @font-face {
        font-family: "Cascadia";
        src: url("https://excalidraw.com/Cascadia.woff2");
      }
    </style>
  </defs>
  <g stroke-linecap="round" transform="translate(10 10) rotate(0 104.375 100.625)"><path d="M168.52 20.06 C178.94 25.9, 186.12 38.96, 192.85 49.31 C199.57 59.66, 206.8 70.53, 208.86 82.17 C210.93 93.81, 207.66 106.89, 205.23 119.15 C202.8 131.41, 200.6 145.46, 194.27 155.74 C187.94 166.02, 177.72 173.95, 167.24 180.83 C156.77 187.7, 143.81 193.35, 131.42 196.99 C119.03 200.62, 105.25 203.46, 92.9 202.64 C80.54 201.82, 68.72 197.65, 57.29 192.07 C45.87 186.48, 33.14 178.68, 24.36 169.13 C15.59 159.58, 9 146.24, 4.63 134.76 C0.26 123.28, -2.32 112.32, -1.84 100.26 C-1.37 88.19, 2.37 73.69, 7.49 62.37 C12.61 51.05, 20.5 40.92, 28.85 32.34 C37.21 23.76, 46.43 16.06, 57.61 10.91 C68.79 5.76, 83.08 2.4, 95.93 1.46 C108.78 0.52, 120.67 0.15, 134.7 5.29 C148.74 10.43, 171.38 26.51, 180.15 32.31 C188.92 38.12, 188.83 39.57, 187.31 40.11 M130.41 6.14 C142.49 7.79, 159.33 15.34, 169.24 22.16 C179.16 28.98, 183.31 37.22, 189.92 47.05 C196.53 56.87, 206.15 69.18, 208.89 81.1 C211.63 93.03, 209.16 106.55, 206.36 118.61 C203.55 130.66, 198.82 142.91, 192.06 153.41 C185.3 163.92, 175.35 174.67, 165.81 181.62 C156.26 188.57, 146.15 191.71, 134.78 195.13 C123.41 198.55, 109.85 202.93, 97.58 202.15 C85.31 201.37, 72.32 195.58, 61.16 190.46 C50.01 185.35, 39.47 180.38, 30.64 171.46 C21.81 162.54, 13.12 148.41, 8.16 136.94 C3.2 125.47, 0.88 114.69, 0.87 102.66 C0.85 90.63, 4.28 76.7, 8.06 64.77 C11.85 52.84, 15.02 39.64, 23.59 31.08 C32.16 22.51, 47.61 18.75, 59.5 13.38 C71.39 8.01, 83.15 0.65, 94.93 -1.14 C106.72 -2.94, 124.21 1.2, 130.21 2.61 C136.21 4.01, 131.27 5.8, 130.94 7.27" stroke="#000000" stroke-width="2" fill="none"></path></g></svg>